# xmcd
#
# Track frame offsets:
#	150
#	10082
#	24093
#	38375
#	49673
#	61644
#	73393
#	87066
#	101263
#	115506
#	129664
#	142092
#	154344
#	166496
#	179797
#	193508
#	206983
#	218055
#
# Disc length: 3081 seconds
#
# Revision: 1
# Processed by: cddbd v1.5.2PL0 Copyright (c) Steve Scherf et al.
# Submitted via: audiograbber 1.83.01
#
DISCID=f40c0712
DTITLE=Bing Crosby - Stardust - CD 2
DYEAR=2004
DGENRE=Oldies
TTITLE0=As time goes by
TTITLE1=Summertime
TTITLE2=Try a little tenderness
TTITLE3=Swinging on a star
TTITLE4=Don't be that way
TTITLE5=Sunday, Monday or always
TTITLE6=Too marvelous for words
TTITLE7=Let me call you sweetheart
TTITLE8=Out of nowhere
TTITLE9=Pennies from heaven
TTITLE10=Somebody loves me
TTITLE11=Constantly
TTITLE12=Deep in the heart of Texas
TTITLE13=The very through of you
TTITLE14=I ain't got nobody
TTITLE15=Dinah
TTITLE16=You belong to my heart
TTITLE17=Goodnight sweetheart
EXTD=
EXTT0=
EXTT1=
EXTT2=
EXTT3=
EXTT4=
EXTT5=
EXTT6=
EXTT7=
EXTT8=
EXTT9=
EXTT10=
EXTT11=
EXTT12=
EXTT13=
EXTT14=
EXTT15=
EXTT16=
EXTT17=
PLAYORDER=
